<?xml version="1.0" encoding="utf-8"?>
<!-- Generator: Adobe Illustrator 16.0.0, SVG Export Plug-In . SVG Version: 6.00 Build 0)  -->
<!DOCTYPE svg PUBLIC "-//W3C//DTD SVG 1.1//EN" "http://www.w3.org/Graphics/SVG/1.1/DTD/svg11.dtd">
<svg version="1.1" id="Layer_1" xmlns="http://www.w3.org/2000/svg" xmlns:xlink="http://www.w3.org/1999/xlink" x="0px" y="0px"
	 width="128px" height="128px" viewBox="0 0 128 128" enable-background="new 0 0 128 128" xml:space="preserve">
<g>
	<g>
		<g>
			
				<rect x="88.495" y="-5.384" transform="matrix(0.2613 0.9653 -0.9653 0.2613 78.064 -78.7956)" fill="#282D33" width="4.03" height="33.973"/>
		</g>
		<g>
			
				<rect x="35.077" y="9.479" transform="matrix(0.2612 0.9653 -0.9653 0.2612 52.5537 -16.5556)" fill="#282D33" width="4.03" height="33.151"/>
		</g>
	</g>
	<g>
		<path fill="#282D33" d="M71.037,102.976H56.833V30.96c-3.583-2.391-5.763-6.43-5.763-10.814c0-7.154,5.771-12.973,12.866-12.973
			c7.094,0,12.864,5.819,12.864,12.973c0,4.385-2.18,8.425-5.764,10.815V102.976z M60.863,98.946h6.145V28.619l1.062-0.57
			c2.899-1.559,4.702-4.586,4.702-7.903c0-4.932-3.964-8.944-8.835-8.944c-4.873,0-8.837,4.012-8.837,8.944
			c0,3.316,1.802,6.344,4.702,7.902l1.062,0.57V98.946z"/>
	</g>
	<g>
		<path fill="#282D33" d="M87.063,104.59h-4.029c0-0.985-0.575-1.614-0.972-1.614H45.803c-0.393,0-0.964,0.629-0.964,1.614h-4.03
			c0-3.111,2.24-5.644,4.994-5.644h36.258C84.818,98.946,87.063,101.479,87.063,104.59z"/>
	</g>
	<g>
		<path fill="#282D33" d="M93.379,122.779H34.491v-14.364h58.888V122.779z M38.521,118.749H89.35v-6.305H38.521V118.749z"/>
	</g>
	<g>
		<path fill="#282D33" d="M93.379,122.779H34.491v-14.364h58.888V122.779z M38.521,118.749H89.35v-6.305H38.521V118.749z"/>
	</g>
	<g>
		<g>
			<g>
				<polygon fill="#282D33" points="34.525,75.312 22.289,41.35 10.055,75.312 6.263,73.946 22.289,29.46 38.316,73.946 				"/>
			</g>
			<g>
				<path fill="#282D33" d="M22.289,91.997c-10.367,0-19.291-7.105-21.702-17.28L0,72.237h44.579l-0.587,2.479
					C41.581,84.892,32.656,91.997,22.289,91.997z M5.278,76.267c2.716,7.002,9.388,11.701,17.011,11.701S36.584,83.269,39.3,76.267
					H5.278z"/>
			</g>
		</g>
		<g>
			<g>
				<polygon fill="#282D33" points="117.944,52.711 105.708,18.751 93.475,52.71 89.683,51.345 105.71,6.859 121.736,51.345 				"/>
			</g>
			<g>
				<path fill="#282D33" d="M105.709,69.397c-10.37,0-19.296-7.107-21.703-17.284l-0.586-2.479H128l-0.588,2.48
					C124.996,62.291,116.072,69.397,105.709,69.397z M88.697,53.665c2.713,7.002,9.386,11.702,17.012,11.702
					c7.62,0,14.292-4.7,17.011-11.702H88.697z"/>
			</g>
		</g>
	</g>
	<g>
		<rect x="61.922" y="17.857" fill="#282D33" width="4.029" height="4.473"/>
	</g>
</g>
</svg>
